PathFileType	4	(X/Y/Z)	OpenSim_Sub07_EMGBaseline_Accel.trc
DataRate	CameraRate	NumFrames	NumMarkers	Units	OrigDataRate	OrigDataStartFrame	OrigNumFrames
100	100	24	8	m	100	3415	6828
Frame#	Time	torso_imu_offset_imu	pelvis_imu_offset_imu	tibia_r_imu_offset_imu	femur_r_imu_offset_imu	tibia_l_imu_offset_imu	femur_l_imu_offset_imu	toes_r_imu_offset_imu	toes_l_imu_offset_imu
				X1	Y1	Z1	X2	Y2	Z2	X3	Y3	Z3	X4	Y4	Z4	X5	Y5	Z5	X6	Y6	Z6	X7	Y7	Z7	X8		Y8	Z8	

3415	34.14000000	-9.14737900	1.58082500	5.72913400	10.08435700	0.34696400	3.69688900	10.04492200	7.78870900	-1.41906300	9.46495100	-1.39093100	-0.52643700	10.68872300	-6.89779000	-1.06441700	12.04415600	-0.50827200	-1.01349500	5.55231100	0.75669800	8.77780800	9.70490000	2.77144200	12.41685400
3416	34.15000000	-9.32319900	1.58084600	5.70126200	10.27813000	0.41545100	3.50135700	10.06704500	6.20169200	-1.53691600	8.77967600	-0.55191200	-0.66200700	8.13741800	-7.11515500	0.03223100	12.42605100	-0.16309200	-1.37209300	5.19123600	0.82168900	8.83396000	5.72787500	2.37462300	10.95215500
3417	34.16000000	-9.50488500	1.51516500	5.75112200	10.13544800	0.44800200	3.43540400	10.37956600	3.96873300	-0.53445300	9.08075900	0.32926000	-0.42757500	5.54600900	-7.63234700	0.95336500	12.48035600	0.28031700	-1.33245400	5.48824700	1.24360200	8.71916900	2.61821600	2.44940600	8.38131300
3418	34.17000000	-9.57560400	1.42006200	5.94545500	9.99592800	0.60038000	3.17474000	10.11772700	1.54465500	-0.36299200	9.37558500	0.76383700	-0.35534500	3.49549300	-8.37824100	1.61243700	12.36231100	0.95513800	-0.65290500	5.14490800	1.29481700	8.66444100	-0.60240200	-0.31736700	8.58725700
3419	34.18000000	-9.59871200	1.36076300	6.00755300	9.75527300	0.85501500	2.94374800	9.92397000	-0.47934300	-1.04573100	9.36622300	1.14574300	-0.26833900	1.88111900	-8.71025900	2.61297300	12.09917700	1.89159200	-0.07067200	5.26866500	1.30150000	8.67783500	28.18305401	-3.46862000	19.88024000
3420	34.19000000	-9.51352700	1.29357800	5.95692000	9.62303800	1.05548200	2.90672400	10.16784300	-1.82109200	-1.89660600	9.20892400	1.47491100	-0.27469500	0.10796000	-9.79123100	3.69610000	11.87596000	1.94647900	0.17675200	5.15484700	1.26965000	8.58932200	39.55147800	7.21432500	21.59852900
3421	34.20000000	-9.42883200	1.24037800	6.04831300	9.66045800	1.24037500	3.01465200	10.33741400	-1.85104300	-1.82986700	9.17734400	1.48595000	-0.59690300	-1.34703000	-11.24730800	3.82389200	11.83304900	2.15345600	0.00804000	5.01827500	1.01881000	8.56646200	12.77531700	9.54411300	23.38182400
3422	34.21000000	-9.54840900	1.20581500	6.17503300	9.84615600	1.33484000	3.05536600	10.63986600	0.06692000	-1.38121800	9.37285000	1.22627700	-1.03801300	-0.88809700	-11.11456900	2.66362000	12.06280700	2.22824600	-0.11946700	5.17929300	0.97159900	8.70926100	7.61718100	10.96429600	14.35900200
3423	34.22000000	-9.70443600	1.07083200	6.19675100	9.97720600	1.41656700	2.99072900	10.41672100	2.22860800	-1.01322200	9.69993300	0.90117000	-0.91864900	0.90461400	-8.55526300	1.89780200	11.92977200	2.39868000	-0.16237800	5.27766800	1.18057200	8.62717800	-2.58452200	6.80994600	9.70347300
3424	34.23000000	-9.58230800	0.96451900	6.16119400	9.90749500	1.46776600	2.84162100	10.05733700	3.61021200	-1.07894100	9.76653400	0.77756900	-0.49970800	1.87965500	-5.51424600	1.90554100	11.04011000	2.31187900	0.00707200	4.93211500	1.26945500	8.68394500	-5.20213300	4.92512200	7.32528700
3425	34.24000000	-9.16854800	0.80351100	6.18128300	9.68785700	1.42733000	2.71023700	9.51993100	4.46567700	-1.14367600	9.69052300	0.57230400	-0.23432500	2.06991700	-3.09936400	3.06310200	10.04904300	2.24722100	0.26485100	4.97367600	0.96835500	8.70816600	-3.71116000	3.15126600	6.27907500
3426	34.25000000	-8.88888300	0.63864700	6.20349000	9.40805100	1.43429600	2.63552200	8.96856200	4.84715000	-1.08244400	9.45235000	0.30197000	-0.29487700	1.66410200	-1.54494500	4.51734500	9.31566500	2.39447200	0.41995700	4.94816000	0.93235800	8.71926500	-1.36943400	2.76041600	6.55734500
3427	34.26000000	-8.61288700	0.58303200	6.15425000	9.11574700	1.32842700	2.62950600	9.08436600	4.55525700	-0.54468100	9.24009200	-0.09090300	-0.31882800	1.14189300	-1.09873900	5.55434200	8.90046000	2.22593500	0.32933600	5.50199300	1.11578800	8.36046800	0.46715200	4.11751700	7.69241300
3428	34.27000000	-8.32334600	0.55805000	6.11236100	9.02060600	1.15234000	2.58824200	9.37571900	3.25869700	-0.53810000	9.16669400	-0.48966500	-0.15578100	0.94359000	-1.90417900	5.94074500	8.58723100	1.68368700	0.19546600	5.22126300	1.27006000	8.45803300	1.70508500	5.20751000	8.48315100
3429	34.28000000	-8.25611900	0.57519200	6.12470200	8.97950400	0.96604100	2.53629000	9.55629800	2.02042000	-0.72853000	9.14179000	-0.69513300	-0.00878800	1.17876500	-3.03886400	5.78788100	8.43630800	1.48126500	0.02487700	5.03527900	0.98997600	8.56417800	2.36802000	5.69455600	9.08219200
3430	34.29000000	-8.12385900	0.61575000	6.07788900	8.96346100	0.78388600	2.48437500	9.66807300	0.87025900	-0.58610600	9.10933400	-0.68396500	0.10270800	1.33055500	-3.88350200	5.01477100	8.32340000	1.21538100	-0.14318200	4.92917300	1.07599900	8.69731600	2.68188100	5.01595200	9.07831700
3431	34.30000000	-8.07111100	0.66098600	6.07643100	8.96627000	0.62751900	2.44114100	9.74265200	0.19925800	-0.59180100	9.21991900	-0.47773100	0.23162400	1.47743800	-4.24495000	4.21445600	8.27006900	0.94347300	-0.22592400	5.07782500	1.27667100	8.54515300	3.10798100	3.45023400	8.82802000
3432	34.31000000	-8.06217800	0.60081600	6.03332300	8.96265000	0.50297900	2.44029400	9.81372400	0.74192100	-0.59338200	9.32286400	-0.30397400	0.33948600	1.66367800	-3.80499100	4.11433300	8.24533600	0.90294300	-0.33582700	5.25652300	1.27186400	8.44500300	3.31181000	1.71279400	8.45011000
3433	34.32000000	-8.04958900	0.62065500	6.05672300	8.95189100	0.40996600	2.48204600	9.68528500	1.89355700	-0.56490700	9.42474300	-0.23240700	0.28517600	2.16795600	-2.92055800	4.88809100	8.28382300	0.78409100	-0.44152200	5.16033700	1.21387300	8.48625700	3.61232700	0.46771900	8.19519000
3434	34.33000000	-8.01907800	0.62704400	6.11359000	8.98219500	0.41833700	2.50208200	9.59914400	2.66646700	-0.35066900	9.38253500	-0.38916900	0.11670700	2.64600600	-1.27206000	5.52824700	8.18939300	0.39594700	-0.45287500	5.18061900	1.23090700	8.46865300	4.07116200	-0.05628900	7.72162700
3435	34.34000000	-8.10574900	0.67677500	6.19934600	8.98530400	0.44375300	2.58958700	9.51036400	2.64398400	-0.33557400	9.45301000	-0.57004200	0.13321200	3.68595900	0.78323300	3.84993400	8.21252100	0.22545700	-0.36644500	5.12349300	1.36232900	8.44506900	3.87228000	0.18627300	7.28761400
3436	34.35000000	-8.14311700	0.65690400	6.25832800	9.00193300	0.55868500	2.60369000	9.37975700	2.49197900	-0.15810500	9.38258400	-0.87923700	0.19916000	4.51605700	-0.20040500	0.34079500	8.24521200	0.23606300	-0.31487200	5.40878100	1.30647700	8.39044000	4.47068600	0.44446600	7.42598200
3437	34.36000000	-8.19288000	0.73378000	6.26222000	9.03688700	0.58859500	2.50624300	9.52641700	2.31029700	-0.37648500	9.33999600	-1.07693200	0.21360200	4.62503300	-4.14652500	-2.53254400	8.26227000	0.46092300	-0.27824000	4.94822800	1.48821900	8.64417200	6.27504300	0.30055600	8.60923700
3438	34.37000000	-8.21112200	0.76276300	6.25918200	9.07234700	0.70334600	2.46837100	9.74057400	1.74841000	-0.14108000	9.37160600	-1.23961200	0.18114700	4.80153200	-8.56337100	-2.99648000	7.84733600	0.01944600	-0.22804500	5.01890000	1.30555700	8.62160900	8.46830000	-0.39009900	10.29387000
